<?xml version="1.0" encoding="utf-8"?>
<!-- Generator: Adobe Illustrator 19.2.1, SVG Export Plug-In . SVG Version: 6.00 Build 0)  -->
<svg version="1.1" id="Layer_1" xmlns="http://www.w3.org/2000/svg" xmlns:xlink="http://www.w3.org/1999/xlink" x="0px" y="0px"
	 viewBox="0 0 124 124" style="enable-background:new 0 0 124 124;" xml:space="preserve">
<style type="text/css">
	.st0{fill:none;enable-background:new    ;}
</style>
<path d="M88.5,12.8c15.8,0,28.7,12.9,28.7,28.8c0,8.2-3.4,15.6-8.8,20.8L62,109.2L14.8,61.6c-4.9-5.2-8-12.2-8-20
	c0-15.9,12.8-28.8,28.7-28.8c11.9,0,22.2,7.3,26.5,17.8C66.3,20.1,76.6,12.8,88.5,12.8 M88.5,7.9C77.9,7.9,68.2,12.9,62,21
	C55.8,12.9,46.1,7.9,35.5,7.9C17,7.9,2,23,2,41.6c0,8.7,3.3,17,9.3,23.3l47.2,47.7l3.4,3.4l3.4-3.4l46.3-46.8
	c6.6-6.3,10.2-15,10.2-24.2C122,23,107,7.9,88.5,7.9L88.5,7.9z"/>
<path class="st0" d="z"/>
</svg>
