<?xml version="1.0" encoding="utf-8"?>
<!-- Generator: Adobe Illustrator 19.2.1, SVG Export Plug-In . SVG Version: 6.00 Build 0)  -->
<svg version="1.1" id="Layer_1" xmlns="http://www.w3.org/2000/svg" xmlns:xlink="http://www.w3.org/1999/xlink" x="0px" y="0px"
	 viewBox="0 0 172.8 129.6" style="enable-background:new 0 0 172.8 129.6;" xml:space="preserve">
<style type="text/css">
	.st0{fill:#FFFFFF;}
</style>
<g>
	<rect x="17.3" y="6.8" class="st0" width="17.3" height="6.8"/>
	<path class="st0" d="M38,20.5c5.7,0,12.4-4.1,15-9.1l1.1-2.2c2.5-5,9.3-9.2,15-9.2h34.6c5.7,0,12.5,4.1,15,9.2l1.1,2.2
		c2.5,5,9.3,9.1,15,9.1h27.7c5.7,0,10.4,4.6,10.4,10.2v88.7c0,5.6-4.7,10.2-10.4,10.2H10.4C4.7,129.6,0,125,0,119.4V30.7
		c0-5.6,4.7-10.2,10.4-10.2H38z M136.5,30.7c-2.9,0-5.2,2.3-5.2,5.1s2.3,5.1,5.2,5.1s5.2-2.3,5.2-5.1S139.4,30.7,136.5,30.7
		 M86.4,30.7c-22.9,0-41.5,18.3-41.5,40.9s18.6,40.9,41.5,40.9s41.5-18.3,41.5-40.9S109.3,30.7,86.4,30.7 M86.4,40.9
		c-17.2,0-31.1,13.7-31.1,30.7s13.9,30.7,31.1,30.7s31.1-13.7,31.1-30.7C117.5,54.7,103.6,40.9,86.4,40.9"/>
</g>
</svg>
