<?xml version="1.0" encoding="utf-8"?>
<!-- Generator: Adobe Illustrator 19.2.1, SVG Export Plug-In . SVG Version: 6.00 Build 0)  -->
<svg version="1.1" id="Layer_1" xmlns="http://www.w3.org/2000/svg" xmlns:xlink="http://www.w3.org/1999/xlink" x="0px" y="0px"
	 viewBox="0 0 124 124" style="enable-background:new 0 0 124 124;" xml:space="preserve">
<style type="text/css">
	.st0{fill:none;enable-background:new    ;}
	.st1{fill:#FFFFFF;}
</style>
<path class="st0" d="z"/>
<path class="st1" d="M62.1,6.7c25.3,21.9,44.9,38.8,59,50.6c1.6,1.3,2.4,2.9,2.4,4.7c0,1.7-0.6,3.1-1.8,4.4
	c-1.2,1.2-2.6,1.8-4.3,1.8H105v42.9c0,1.7-0.6,3.1-1.8,4.4c-1.2,1.2-2.6,1.8-4.3,1.8H80.5c-1.7,0-3.1-0.6-4.4-1.8
	c-1.2-1.2-1.8-2.7-1.8-4.4V86.6H49.7v24.5c0,1.7-0.6,3.1-1.8,4.4c-1.2,1.2-2.6,1.8-4.3,1.8H25.2c-1.7,0-3.1-0.6-4.4-1.8
	c-1.2-1.2-1.8-2.7-1.8-4.4V68.2H6.7c-1.7,0-3.1-0.6-4.4-1.8c-1.2-1.2-1.8-2.7-1.8-4.4c0-1.7,0.7-3.2,2.2-4.7L62.1,6.7z"/>
</svg>
