<?xml version="1.0" encoding="utf-8"?>
<!-- Generator: Adobe Illustrator 19.2.1, SVG Export Plug-In . SVG Version: 6.00 Build 0)  -->
<svg version="1.1" id="Layer_1" xmlns="http://www.w3.org/2000/svg" xmlns:xlink="http://www.w3.org/1999/xlink" x="0px" y="0px"
	 viewBox="0 0 124 124" style="enable-background:new 0 0 124 124;" xml:space="preserve">
<style type="text/css">
	.st0{fill:none;enable-background:new    ;}
	.st1{fill:#FFFFFF;}
</style>
<path class="st0" d="M0,0"/>
<path class="st1" d="M98.6,92.1c-5.2-1.8-10.7-1.9-15.9-3.7c-1.6-0.5-4.7-1.2-5.3-3c-0.6-1.8-0.6-3.8-0.7-5.7
	c-0.1-1.5-0.1-2.9-0.1-4.4c0-1,2.4-3,3-3.9c2.1-3.4,2.3-8.1,2.6-12c3.3,0.9,3.7-5.2,4.3-7.1c0.4-1.3,3-10.2-1-9
	c1-1.7,1.3-3.7,1.6-5.6c0.8-4.9,1.1-10.2-0.4-15C83.6,12.9,74.1,7.3,64,7c-10.2-0.3-20.4,4.5-24.3,14.4c-1.8,4.8-1.7,10.1-1.1,15.1
	c0.3,2.3,0.6,4.9,1.8,6.9c-3.7-1.1-1.7,6.8-1.3,8.1c0.6,1.9,1.1,8.9,4.6,8c0.3,3.1,0.6,6.3,1.5,9.3c0.6,2,1.8,3.7,3.1,5.3
	c0.7,0.8,1,0.8,1,1.8c0,3,0,6.2-0.7,9.1c-0.8,2.9-7.1,4.1-9.7,4.7c-6.9,1.4-13.2,2.1-19,6.3c-6.7,4.9-10.2,12.6-10.2,20.9
	c31.8,0,63.7,0,95.5,0c3.6,0,7.1,0,10.7,0C116.1,105.8,109.3,95.8,98.6,92.1z"/>
</svg>
