<?xml version="1.0" encoding="utf-8"?>
<!-- Generator: Adobe Illustrator 19.2.1, SVG Export Plug-In . SVG Version: 6.00 Build 0)  -->
<svg version="1.1" id="Layer_1" xmlns="http://www.w3.org/2000/svg" xmlns:xlink="http://www.w3.org/1999/xlink" x="0px" y="0px"
	 viewBox="0 0 617 126" style="enable-background:new 0 0 617 126;" xml:space="preserve">
<style type="text/css">
	.st0{fill:#FFFFFF;}
</style>
<g>
	<path class="st0" d="M31.8,8.1l23.9,0.7l12.6-0.2c0.2,1.2,0.4,2.8,0.4,4.9c0,2-0.3,3.5-0.9,4.4c-0.6,0.9-1.6,1.3-3.1,1.3
		c-1.5,0-4.6-0.2-9.3-0.6C50.5,18.2,47,18,44.7,18l-4.4,0.2c-0.3,3.1-2.3,13-5.9,29.6C40.7,47.3,45.8,47,50,47s7.4,0.3,9.6,1
		c-0.2,3.4-0.9,6.3-2.2,8.8c-3.5-0.7-7.6-1.1-12.4-1.1c-4.8,0-8.9,0.2-12.2,0.7c-3,14.7-4.5,25.9-4.5,33.6V92
		c-2.9,1.6-9.1,2.4-18.5,2.4H8.5c0-5.5,1.9-17,5.7-34.5c3.8-17.5,6.1-30.1,6.9-37.7c0-1.3-0.4-2.9-1.2-4.7c-0.8-1.8-1.7-3.3-2.6-4.5
		l-1.2-1.7l0.4-1.8C20.8,8.7,26,8.2,31.8,8.1z"/>
	<path class="st0" d="M78.8,95.6c-5.6,0-10-2-13.2-5.9c-3.2-3.9-4.8-9.5-4.8-16.5c0-9,2.4-16.8,7.3-23.3c4.8-6.5,11.5-9.8,20.1-9.8
		l4.4,0.2c1.4-0.7,2.9-1.1,4.6-1.1c6.4,0,9.6,6.1,9.6,18.2c3.3-0.2,6.7-0.6,10.1-1.3l2-0.5l0.7,4.8c-2.7,1.1-6.3,2.2-10.9,3
		l-2.4,0.5c-1.5,8.5-4.7,16-9.4,22.3C92.2,92.4,86.2,95.6,78.8,95.6z M85.4,85.1c3.4,0,6.5-2.2,9.2-6.6c2.7-4.4,4.6-9,5.7-13.9
		c-8.7,0-13.1-3.3-13.1-9.8c0-2.6,0.5-5,1.6-7.3l0.6-1.2c-0.3-0.2-0.7-0.2-1.2-0.2c-0.5,0-0.9,0.1-1.1,0.2c-2,1.3-3.9,4.4-5.7,9.2
		c-1.8,4.8-2.7,10.3-2.7,16.5C78.7,80.7,80.9,85.1,85.4,85.1z"/>
	<path class="st0" d="M129.9,95.6c-5.6,0-10-2-13.2-5.9c-3.2-3.9-4.8-9.5-4.8-16.5c0-9,2.4-16.8,7.3-23.3c4.8-6.5,11.5-9.8,20.1-9.8
		l4.4,0.2c1.4-0.7,2.9-1.1,4.6-1.1c6.4,0,9.6,6.1,9.6,18.2c3.3-0.2,6.7-0.6,10.1-1.3l2-0.5l0.7,4.8c-2.7,1.1-6.3,2.2-10.9,3
		l-2.4,0.5c-1.5,8.5-4.7,16-9.4,22.3C143.4,92.4,137.3,95.6,129.9,95.6z M136.5,85.1c3.4,0,6.5-2.2,9.2-6.6c2.7-4.4,4.6-9,5.7-13.9
		c-8.7,0-13.1-3.3-13.1-9.8c0-2.6,0.5-5,1.6-7.3l0.6-1.2c-0.3-0.2-0.7-0.2-1.2-0.2c-0.5,0-0.9,0.1-1.1,0.2c-2,1.3-3.9,4.4-5.7,9.2
		c-1.8,4.8-2.7,10.3-2.7,16.5C129.8,80.7,132,85.1,136.5,85.1z"/>
	<path class="st0" d="M220.5,86.7c-6.9,5.9-13,8.9-18.2,8.9s-8.3-2.6-9.1-7.8c-2.4,2.4-5.2,4.4-8.2,5.7c-3,1.4-5.7,2.1-7.9,2.1
		c-3.9,0-7.2-1.7-10-5.1c-2.8-3.4-4.1-8.7-4.1-15.9c0-10.7,2.3-19.2,6.8-25.3c4.6-6.1,9.7-9.2,15.4-9.2s10.6,1.3,14.5,3.9
		c2.5-13.2,3.8-23.5,3.8-31.1l-0.6-5.1c6.1-2.1,12.1-3.2,17.9-3.2c0.6,1.4,1,3,1,4.8c0,5.9-1.8,18-5.4,36.2
		c-3.6,18.2-5.4,30.5-5.4,37c0,2,0.4,2.9,1.3,2.9c0.5,0,2-0.8,4.6-2.3l1.2-0.7L220.5,86.7z M191.1,47.3c-2.8,0-5.3,2.8-7.4,8.4
		c-2.1,5.6-3.1,11.2-3.1,16.7c0,5.5,0.4,9,1.2,10.6c0.8,1.5,1.9,2.3,3.5,2.3c2.7,0,5.3-1.1,7.9-3.3c0.2-3.3,2.1-14.1,5.5-32.5
		C195.9,48,193.4,47.3,191.1,47.3z"/>
	<path class="st0" d="M263.2,78.1c0,5.1-2.3,9.3-6.8,12.6c-4.5,3.3-9.7,4.9-15.4,4.9c-5.8,0-10.4-1.2-13.7-3.7
		c-3.4-2.4-5.1-4.6-5.1-6.5c0-1.1,1.4-3,4.3-5.6c2.8-2.6,5.2-4.1,7.2-4.7c4.1,3,7.4,7.8,10,14.3c3-0.2,4.5-1.7,4.5-4.3
		c0-3.7-3.3-9-9.9-15.9c-6.6-6.9-9.9-12.3-9.9-16.4c0-4.1,1.8-7.2,5.5-9.5c3.7-2.2,8.1-3.4,13.2-3.4c5.2,0,9,0.9,11.7,2.7
		c2.6,1.8,3.9,4.3,3.9,7.4c0,3.1-2.5,7.5-7.4,13c0.6,0.6,1.3,1.3,2.2,2.3c0.9,0.9,2.1,2.7,3.5,5.3C262.5,73.4,263.2,75.9,263.2,78.1
		z M256.6,50.3c0-2.8-2-4.3-5.9-4.3c-1.9,0-3.4,0.4-4.6,1.2c-1.2,0.8-1.8,1.6-1.8,2.6c0,1.8,1.8,4.3,5.4,7.6l1.8,1.6
		C254.9,56,256.6,53.2,256.6,50.3z"/>
	<path class="st0" d="M307,41.5c-0.2,2-0.9,4.4-2.1,7.1c-3.1-0.3-6-0.5-8.8-0.5H294c-3.7,18.1-5.6,29.4-5.6,33.9
		c0,2.4,0.5,3.5,1.5,3.5c1,0,3.7-1,8.1-3l2.2,4c-7.2,6-14,9-20.1,9c-2.8,0-5.2-0.9-7-2.7s-2.7-4.2-2.7-7.1c0-3,0.3-6.3,1-10.1
		c0.7-3.7,1.6-8.3,2.9-13.7c1.2-5.4,2.1-9.8,2.7-13.1c-3,0.2-5.2,0.5-6.7,0.7c-0.2-1-0.2-2.3-0.2-4c0-1.7,0.1-3,0.4-4.1h7.7
		c0.6-4.4,1-8.5,1-12.4l-0.1-3.8v-0.4c6.3-2.2,12.3-3.3,17.9-3.3c0.3,1.6,0.5,3.7,0.5,6.1s-0.7,7-2.1,13.8H307z"/>
	<path class="st0" d="M341.2,43.6c0.2-0.2,0.6-1.2,1.3-3.2c3.8,0,8.9,1.1,15.4,3.4c-2,6.8-3.7,13.8-4.9,21.2
		c-1.2,7.4-1.8,12.6-1.8,15.7c0,3.1,0.3,4.7,1,4.7c0.5,0,2.3-0.8,5.4-2.3l1.5-0.7l2.2,4.3c-0.7,0.7-1.7,1.5-2.9,2.4
		c-1.2,1-3.4,2.3-6.6,4c-3.3,1.7-6.2,2.5-8.8,2.5c-5,0-8-2.3-8.8-6.8c-5.2,4.6-9.9,6.8-14.1,6.8c-4.2,0-7.7-1.6-10.6-4.9
		c-2.9-3.3-4.3-8.4-4.3-15.4c0-10.9,2.2-19.5,6.7-25.8c4.5-6.3,9.9-9.5,16.2-9.5C332.6,40.1,337,41.2,341.2,43.6z M327.3,85.2
		c2,0,4.1-0.8,6.6-2.3c0.6-11.5,2.5-22.8,5.7-34c-2.4-1.1-4.5-1.6-6.2-1.6c-2.9,0-5.4,2.9-7.5,8.6s-3.1,12.1-3.1,19
		C322.8,81.7,324.3,85.2,327.3,85.2z"/>
	<path class="st0" d="M415,40.9c0.3,0.3,0.5,1,0.5,2.1c0,1.1-0.1,2.3-0.2,3.5c-0.2,1.3-0.4,4.1-0.9,8.5c-0.4,4.4-0.8,8.2-1.2,11.5
		c-4.1,36.6-15.3,54.9-33.4,54.9c-2.9,0-5.6-0.8-8-2.3c-2.4-1.5-3.6-3.5-3.6-6c0-3.3,2-6.2,6-8.9c4-2.7,9.4-4.8,16.1-6.2
		c0-0.1,0.2-1.2,0.7-3.4c0.5-2.2,0.8-4,1-5.4c-4.9,3.6-9.5,5.4-13.7,5.4c-4.3,0-7.8-1.7-10.5-5c-2.7-3.3-4.1-8.7-4.1-16
		c0-9.6,2.2-17.6,6.5-24c4.3-6.4,10-9.6,17.1-9.6c4,0,7.9,1,11.8,2.9c4.1-1.5,8.6-2.2,13.4-2.2L415,40.9z M378.8,107.3
		c-2.7,1.6-4.1,3.2-4.1,4.8c0,1.5,0.9,2.3,2.6,2.3c1.7,0,3.7-0.8,5.9-2.5c2.2-1.7,4-4.4,5.5-8.1
		C384.9,104.5,381.6,105.7,378.8,107.3z M392.7,47.3c-3.5,0-6.3,2.8-8.3,8.5c-2,5.7-3,11.9-3,18.8c0,6.9,1.5,10.3,4.6,10.3
		c2,0,4.4-0.8,7.2-2.3c2.3-13.7,3.9-24.9,4.9-33.8C395.8,47.8,394,47.3,392.7,47.3z"/>
	<path class="st0" d="M422.3,94.5h-0.9c-0.2-0.7-0.2-2.1-0.2-4.5s1.1-8.6,3.3-18.7c2.2-10.2,3.3-16,3.3-17.4c0-2.5-1.1-5.3-3.4-8.3
		l-1.1-1.5l0.1-1.6c4.4-1.2,11.4-1.8,21.1-1.8c1,2.1,1.5,5.1,1.5,8.9c0.9-1.5,2.8-3.4,5.6-5.9c2.8-2.4,5.8-3.7,8.8-3.7
		c4.4,0,6.6,3.8,6.6,11.5c-0.4,0.5-1,1.1-1.6,1.9c-0.7,0.8-2.1,1.9-4.1,3.2c-2.1,1.4-4.1,2.2-6,2.6c-0.1,0-0.8-1.1-2.1-3.3
		c-1.3-2.2-2.3-3.3-2.9-3.3c-2,0.7-3.8,2-5.4,3.7C441,73.1,439.2,84,439.2,89c0,1.8,0,3,0.1,3.8C436.4,93.9,430.8,94.5,422.3,94.5z"
		/>
	<path class="st0" d="M500.6,43.6c0.2-0.2,0.6-1.2,1.3-3.2c3.8,0,8.9,1.1,15.4,3.4c-2,6.8-3.7,13.8-4.9,21.2
		c-1.2,7.4-1.8,12.6-1.8,15.7c0,3.1,0.3,4.7,1,4.7c0.5,0,2.3-0.8,5.4-2.3l1.5-0.7l2.2,4.3c-0.7,0.7-1.7,1.5-2.9,2.4
		c-1.2,1-3.4,2.3-6.6,4c-3.3,1.7-6.2,2.5-8.8,2.5c-5,0-8-2.3-8.8-6.8c-5.2,4.6-9.9,6.8-14.1,6.8c-4.2,0-7.7-1.6-10.6-4.9
		c-2.9-3.3-4.3-8.4-4.3-15.4c0-10.9,2.2-19.5,6.7-25.8c4.5-6.3,9.9-9.5,16.2-9.5C492,40.1,496.4,41.2,500.6,43.6z M486.7,85.2
		c2,0,4.1-0.8,6.6-2.3c0.6-11.5,2.5-22.8,5.7-34c-2.4-1.1-4.5-1.6-6.2-1.6c-2.9,0-5.4,2.9-7.5,8.6s-3.1,12.1-3.1,19
		C482.2,81.7,483.7,85.2,486.7,85.2z"/>
	<path class="st0" d="M526.1,94.5h-2.3c0-3.8,1.2-11.1,3.5-22c2.3-10.8,3.5-17,3.5-18.4c0-2.7-1.1-5.5-3.4-8.5l-1.1-1.5l0.1-1.6
		c4.4-1.2,11.4-1.8,21.1-1.8c1.1,1.5,1.7,4.1,1.7,7.6c7.3-5.4,13.1-8.2,17.4-8.2c5.4,0,8.7,2.8,9.6,8.4c2.2-1.8,5.1-3.6,8.6-5.6
		c3.5-1.9,6.7-2.9,9.5-2.9s5.1,0.9,7,2.7c1.9,1.8,2.8,4.4,2.8,7.6c0,3.3-0.9,8.6-2.7,16.1c-1.8,7.5-2.7,12.5-2.7,15.1
		s0.4,3.8,1.1,3.8c0.5,0,2.2-0.8,5-2.3l1.3-0.7l2.2,4.3c-2.1,2.1-5,4.1-8.6,6c-3.6,1.9-6.8,2.9-9.6,2.9c-6.1,0-9.2-3.5-9.2-10.4
		c0-2.5,0.9-7.6,2.6-15.2c1.7-7.6,2.6-12.6,2.6-14.9s-0.7-3.5-2.1-3.5c-2.4,0-5,0.9-8.1,2.7c-0.2,1.6-1.3,7.2-3.4,16.6
		c-2.1,9.4-3.1,16.8-3.1,22c-2.4,1.1-7.9,1.6-16.6,1.6c-0.2-0.9-0.2-3.1-0.2-6.5s1-9.2,2.9-17.4c1.9-8.2,2.9-13.4,2.9-15.6
		c0-2.2-0.8-3.3-2.3-3.3c-2.4,0-5.1,1-8.1,2.9c-0.2,0.7-1,4.3-2.4,10.7c-2.9,12.9-4.4,22-4.4,27.5C538.7,93.9,533.5,94.5,526.1,94.5
		z"/>
</g>
</svg>
